<svg width="457" height="462" viewBox="0 0 457 462" fill="none" xmlns="http://www.w3.org/2000/svg">
<path d="M238.664 58C218.001 73.4999 228.365 89.5882 228.5 123" stroke="#B2B2B2" stroke-width="3" stroke-linecap="round" stroke-linejoin="round" stroke-dasharray="1 8"/>
<path d="M233 162.5C233 182 57.8649 178.588 58.0002 212" stroke="#B2B2B2" stroke-width="3" stroke-linecap="round" stroke-linejoin="round" stroke-dasharray="1 8"/>
<path d="M97.8753 229C118.539 244.5 175.131 216.088 174.995 249.5" stroke="#D3D3D3" stroke-width="3" stroke-linecap="round" stroke-linejoin="round" stroke-dasharray="1 8"/>
<path d="M279.875 328C300.539 343.5 357.131 315.088 356.995 348.5" stroke="#B2B2B2" stroke-width="3" stroke-linecap="round" stroke-linejoin="round" stroke-dasharray="1 8"/>
<path d="M394.5 355.798C394.501 373.5 226.498 375.5 226.499 403" stroke="#B2B2B2" stroke-width="3" stroke-linecap="round" stroke-linejoin="round" stroke-dasharray="1 8"/>
<path d="M274.876 229C295.54 244.5 316.501 211.5 354.501 245.501" stroke="#B2B2B2" stroke-width="3" stroke-linecap="round" stroke-linejoin="round" stroke-dasharray="1 8"/>
<path d="M100.654 333.953C121.317 349.453 134.5 315.5 198.5 349.5" stroke="#B2B2B2" stroke-width="3" stroke-linecap="round" stroke-linejoin="round" stroke-dasharray="1 8"/>
<path d="M405.499 258C405.499 288.075 59.4994 282.999 59.4989 308.5" stroke="#B2B2B2" stroke-width="3" stroke-linecap="round" stroke-linejoin="round" stroke-dasharray="1 8"/>
<rect x="129" y="1" width="200" height="64" rx="11" fill="white"/>
<path d="M163.295 37.6591H162.091V27.3636H160.75V37.7045H154.75V27.3636H153.409V39H161.682V41.75H163.136L163.295 37.6591ZM168.902 39.1818C170.675 39.1818 171.97 38.2955 172.379 36.9773L171.084 36.6136C170.743 37.5227 169.953 37.9773 168.902 37.9773C167.328 37.9773 166.243 36.9602 166.18 35.0909H172.516V34.5227C172.516 31.2727 170.584 30.1591 168.766 30.1591C166.402 30.1591 164.834 32.0227 164.834 34.7045C164.834 37.3864 166.379 39.1818 168.902 39.1818ZM166.18 33.9318C166.271 32.5739 167.232 31.3636 168.766 31.3636C170.22 31.3636 171.152 32.4545 171.152 33.9318H166.18ZM173.783 39H174.237C176.169 39 176.726 37.5 176.851 34.6364L176.987 31.5227H180.192V39H181.533V30.2727H175.714L175.555 34.1364C175.442 37.0682 175.146 37.75 174.101 37.75H173.783V39ZM187.652 39.1818C189.425 39.1818 190.72 38.2955 191.129 36.9773L189.834 36.6136C189.493 37.5227 188.703 37.9773 187.652 37.9773C186.078 37.9773 184.993 36.9602 184.93 35.0909H191.266V34.5227C191.266 31.2727 189.334 30.1591 187.516 30.1591C185.152 30.1591 183.584 32.0227 183.584 34.7045C183.584 37.3864 185.129 39.1818 187.652 39.1818ZM184.93 33.9318C185.021 32.5739 185.982 31.3636 187.516 31.3636C188.97 31.3636 189.902 32.4545 189.902 33.9318H184.93ZM193.305 39H197.419C199.192 39 200.26 38 200.26 36.6591C200.26 35.2898 199.22 34.5511 198.26 34.4091C199.243 34.2045 199.942 33.6534 199.942 32.5909C199.942 31.1989 198.749 30.2727 196.874 30.2727H193.305V39ZM194.578 37.7727V35.0909H197.419C198.339 35.0909 198.896 35.642 198.896 36.5455C198.896 37.3068 198.339 37.7727 197.419 37.7727H194.578ZM194.578 33.9318V31.5H196.874C197.947 31.5 198.601 31.9489 198.601 32.6818C198.601 33.4602 197.947 33.9318 196.874 33.9318H194.578ZM204.858 39.2045C206.381 39.2045 207.176 38.3864 207.449 37.8182H207.517V39H208.858V33.25C208.858 30.4773 206.744 30.1591 205.631 30.1591C204.312 30.1591 202.812 30.6136 202.131 32.2045L203.403 32.6591C203.699 32.0227 204.398 31.3409 205.676 31.3409C206.909 31.3409 207.517 31.9943 207.517 33.1136V33.1591C207.517 33.8068 206.858 33.75 205.267 33.9545C203.648 34.1648 201.881 34.5227 201.881 36.5227C201.881 38.2273 203.199 39.2045 204.858 39.2045ZM205.062 38C203.994 38 203.222 37.5227 203.222 36.5909C203.222 35.5682 204.153 35.25 205.199 35.1136C205.767 35.0455 207.29 34.8864 207.517 34.6136V35.8409C207.517 36.9318 206.653 38 205.062 38ZM216.555 39H217.828V30.2727H214.237C212.357 30.2727 211.214 31.2557 211.214 32.8636C211.214 34.0625 211.817 34.9148 212.868 35.2727L210.737 39H212.192L214.214 35.4545H216.555V39ZM216.555 34.2045H214.078C213.129 34.2045 212.555 33.6989 212.555 32.8636C212.555 32.017 213.192 31.5 214.237 31.5H216.555V34.2045ZM227.358 39.2045C228.881 39.2045 229.676 38.3864 229.949 37.8182H230.017V39H231.358V33.25C231.358 30.4773 229.244 30.1591 228.131 30.1591C226.812 30.1591 225.312 30.6136 224.631 32.2045L225.903 32.6591C226.199 32.0227 226.898 31.3409 228.176 31.3409C229.409 31.3409 230.017 31.9943 230.017 33.1136V33.1591C230.017 33.8068 229.358 33.75 227.767 33.9545C226.148 34.1648 224.381 34.5227 224.381 36.5227C224.381 38.2273 225.699 39.2045 227.358 39.2045ZM227.562 38C226.494 38 225.722 37.5227 225.722 36.5909C225.722 35.5682 226.653 35.25 227.699 35.1136C228.267 35.0455 229.79 34.8864 230.017 34.6136V35.8409C230.017 36.9318 229.153 38 227.562 38ZM234.357 42.2727C235.567 42.2727 236.419 41.6307 236.925 40.2727L240.641 30.2955L239.175 30.2727L236.766 37.2273H236.675L234.266 30.2727H232.811L236.038 39.0455L235.788 39.7273C235.3 41.0568 234.697 41.1818 233.72 40.9318L233.379 42.1136C233.516 42.1818 233.902 42.2727 234.357 42.2727ZM240.749 41.5H242.089V39H248.544V41.5H249.885V37.75H248.544V30.2727H242.999L242.703 33.7273C242.493 36.1705 242.18 37.0114 241.476 37.75H240.749V41.5ZM242.999 37.75C243.612 36.9432 243.834 35.5511 244.021 33.7273L244.249 31.5227H247.203V37.75H242.999ZM253.006 37.0227V30.2727H251.665V39H253.233L257.415 32.25V39H258.756V30.2727H257.21L253.006 37.0227ZM260.024 31.5227H262.911V39H264.251V31.5227H267.115V30.2727H260.024V31.5227ZM272.163 39.1818C274.527 39.1818 276.118 37.3864 276.118 34.6818C276.118 31.9545 274.527 30.1591 272.163 30.1591C269.8 30.1591 268.209 31.9545 268.209 34.6818C268.209 37.3864 269.8 39.1818 272.163 39.1818ZM272.163 37.9773C270.368 37.9773 269.55 36.4318 269.55 34.6818C269.55 32.9318 270.368 31.3636 272.163 31.3636C273.959 31.3636 274.777 32.9318 274.777 34.6818C274.777 36.4318 273.959 37.9773 272.163 37.9773ZM278.165 42.2727H279.506V37.6591H279.619C279.915 38.1364 280.483 39.1818 282.165 39.1818C284.347 39.1818 285.869 37.4318 285.869 34.6591C285.869 31.9091 284.347 30.1591 282.142 30.1591C280.438 30.1591 279.915 31.2045 279.619 31.6591H279.46V30.2727H278.165V42.2727ZM279.483 34.6364C279.483 32.6818 280.347 31.3636 281.983 31.3636C283.688 31.3636 284.528 32.7955 284.528 34.6364C284.528 36.5 283.665 37.9773 281.983 37.9773C280.369 37.9773 279.483 36.6136 279.483 34.6364ZM289.256 37.0227V30.2727H287.915V39H289.483L293.665 32.25V39H295.006V30.2727H293.46L289.256 37.0227ZM302.712 39H303.984V30.2727H300.393C298.513 30.2727 297.371 31.2557 297.371 32.8636C297.371 34.0625 297.973 34.9148 299.024 35.2727L296.893 39H298.348L300.371 35.4545H302.712V39ZM302.712 34.2045H300.234C299.286 34.2045 298.712 33.6989 298.712 32.8636C298.712 32.017 299.348 31.5 300.393 31.5H302.712V34.2045Z" fill="#393939"/>
<path d="M163.295 37.6591H162.091V27.3636H160.75V37.7045H154.75V27.3636H153.409V39H161.682V41.75H163.136L163.295 37.6591ZM168.902 39.1818C170.675 39.1818 171.97 38.2955 172.379 36.9773L171.084 36.6136C170.743 37.5227 169.953 37.9773 168.902 37.9773C167.328 37.9773 166.243 36.9602 166.18 35.0909H172.516V34.5227C172.516 31.2727 170.584 30.1591 168.766 30.1591C166.402 30.1591 164.834 32.0227 164.834 34.7045C164.834 37.3864 166.379 39.1818 168.902 39.1818ZM166.18 33.9318C166.271 32.5739 167.232 31.3636 168.766 31.3636C170.22 31.3636 171.152 32.4545 171.152 33.9318H166.18ZM173.783 39H174.237C176.169 39 176.726 37.5 176.851 34.6364L176.987 31.5227H180.192V39H181.533V30.2727H175.714L175.555 34.1364C175.442 37.0682 175.146 37.75 174.101 37.75H173.783V39ZM187.652 39.1818C189.425 39.1818 190.72 38.2955 191.129 36.9773L189.834 36.6136C189.493 37.5227 188.703 37.9773 187.652 37.9773C186.078 37.9773 184.993 36.9602 184.93 35.0909H191.266V34.5227C191.266 31.2727 189.334 30.1591 187.516 30.1591C185.152 30.1591 183.584 32.0227 183.584 34.7045C183.584 37.3864 185.129 39.1818 187.652 39.1818ZM184.93 33.9318C185.021 32.5739 185.982 31.3636 187.516 31.3636C188.97 31.3636 189.902 32.4545 189.902 33.9318H184.93ZM193.305 39H197.419C199.192 39 200.26 38 200.26 36.6591C200.26 35.2898 199.22 34.5511 198.26 34.4091C199.243 34.2045 199.942 33.6534 199.942 32.5909C199.942 31.1989 198.749 30.2727 196.874 30.2727H193.305V39ZM194.578 37.7727V35.0909H197.419C198.339 35.0909 198.896 35.642 198.896 36.5455C198.896 37.3068 198.339 37.7727 197.419 37.7727H194.578ZM194.578 33.9318V31.5H196.874C197.947 31.5 198.601 31.9489 198.601 32.6818C198.601 33.4602 197.947 33.9318 196.874 33.9318H194.578ZM204.858 39.2045C206.381 39.2045 207.176 38.3864 207.449 37.8182H207.517V39H208.858V33.25C208.858 30.4773 206.744 30.1591 205.631 30.1591C204.312 30.1591 202.812 30.6136 202.131 32.2045L203.403 32.6591C203.699 32.0227 204.398 31.3409 205.676 31.3409C206.909 31.3409 207.517 31.9943 207.517 33.1136V33.1591C207.517 33.8068 206.858 33.75 205.267 33.9545C203.648 34.1648 201.881 34.5227 201.881 36.5227C201.881 38.2273 203.199 39.2045 204.858 39.2045ZM205.062 38C203.994 38 203.222 37.5227 203.222 36.5909C203.222 35.5682 204.153 35.25 205.199 35.1136C205.767 35.0455 207.29 34.8864 207.517 34.6136V35.8409C207.517 36.9318 206.653 38 205.062 38ZM216.555 39H217.828V30.2727H214.237C212.357 30.2727 211.214 31.2557 211.214 32.8636C211.214 34.0625 211.817 34.9148 212.868 35.2727L210.737 39H212.192L214.214 35.4545H216.555V39ZM216.555 34.2045H214.078C213.129 34.2045 212.555 33.6989 212.555 32.8636C212.555 32.017 213.192 31.5 214.237 31.5H216.555V34.2045ZM227.358 39.2045C228.881 39.2045 229.676 38.3864 229.949 37.8182H230.017V39H231.358V33.25C231.358 30.4773 229.244 30.1591 228.131 30.1591C226.812 30.1591 225.312 30.6136 224.631 32.2045L225.903 32.6591C226.199 32.0227 226.898 31.3409 228.176 31.3409C229.409 31.3409 230.017 31.9943 230.017 33.1136V33.1591C230.017 33.8068 229.358 33.75 227.767 33.9545C226.148 34.1648 224.381 34.5227 224.381 36.5227C224.381 38.2273 225.699 39.2045 227.358 39.2045ZM227.562 38C226.494 38 225.722 37.5227 225.722 36.5909C225.722 35.5682 226.653 35.25 227.699 35.1136C228.267 35.0455 229.79 34.8864 230.017 34.6136V35.8409C230.017 36.9318 229.153 38 227.562 38ZM234.357 42.2727C235.567 42.2727 236.419 41.6307 236.925 40.2727L240.641 30.2955L239.175 30.2727L236.766 37.2273H236.675L234.266 30.2727H232.811L236.038 39.0455L235.788 39.7273C235.3 41.0568 234.697 41.1818 233.72 40.9318L233.379 42.1136C233.516 42.1818 233.902 42.2727 234.357 42.2727ZM240.749 41.5H242.089V39H248.544V41.5H249.885V37.75H248.544V30.2727H242.999L242.703 33.7273C242.493 36.1705 242.18 37.0114 241.476 37.75H240.749V41.5ZM242.999 37.75C243.612 36.9432 243.834 35.5511 244.021 33.7273L244.249 31.5227H247.203V37.75H242.999ZM253.006 37.0227V30.2727H251.665V39H253.233L257.415 32.25V39H258.756V30.2727H257.21L253.006 37.0227ZM260.024 31.5227H262.911V39H264.251V31.5227H267.115V30.2727H260.024V31.5227ZM272.163 39.1818C274.527 39.1818 276.118 37.3864 276.118 34.6818C276.118 31.9545 274.527 30.1591 272.163 30.1591C269.8 30.1591 268.209 31.9545 268.209 34.6818C268.209 37.3864 269.8 39.1818 272.163 39.1818ZM272.163 37.9773C270.368 37.9773 269.55 36.4318 269.55 34.6818C269.55 32.9318 270.368 31.3636 272.163 31.3636C273.959 31.3636 274.777 32.9318 274.777 34.6818C274.777 36.4318 273.959 37.9773 272.163 37.9773ZM278.165 42.2727H279.506V37.6591H279.619C279.915 38.1364 280.483 39.1818 282.165 39.1818C284.347 39.1818 285.869 37.4318 285.869 34.6591C285.869 31.9091 284.347 30.1591 282.142 30.1591C280.438 30.1591 279.915 31.2045 279.619 31.6591H279.46V30.2727H278.165V42.2727ZM279.483 34.6364C279.483 32.6818 280.347 31.3636 281.983 31.3636C283.688 31.3636 284.528 32.7955 284.528 34.6364C284.528 36.5 283.665 37.9773 281.983 37.9773C280.369 37.9773 279.483 36.6136 279.483 34.6364ZM289.256 37.0227V30.2727H287.915V39H289.483L293.665 32.25V39H295.006V30.2727H293.46L289.256 37.0227ZM302.712 39H303.984V30.2727H300.393C298.513 30.2727 297.371 31.2557 297.371 32.8636C297.371 34.0625 297.973 34.9148 299.024 35.2727L296.893 39H298.348L300.371 35.4545H302.712V39ZM302.712 34.2045H300.234C299.286 34.2045 298.712 33.6989 298.712 32.8636C298.712 32.017 299.348 31.5 300.393 31.5H302.712V34.2045Z" fill="url(#paint0_linear)"/>
<rect x="129" y="1" width="200" height="64" rx="11" stroke="url(#paint1_linear)" stroke-width="2"/>
<rect x="6" y="206" width="104" height="56" rx="11" fill="white"/>
<path d="M29.7727 229.614H33.4318V240H34.8409V229.614H38.5V228.364H29.7727V229.614ZM39.5866 243.273H40.9276V238.659H41.0412C41.3366 239.136 41.9048 240.182 43.5866 240.182C45.7685 240.182 47.2912 238.432 47.2912 235.659C47.2912 232.909 45.7685 231.159 43.5639 231.159C41.8594 231.159 41.3366 232.205 41.0412 232.659H40.8821V231.273H39.5866V243.273ZM40.9048 235.636C40.9048 233.682 41.7685 232.364 43.4048 232.364C45.1094 232.364 45.9503 233.795 45.9503 235.636C45.9503 237.5 45.0866 238.977 43.4048 238.977C41.7912 238.977 40.9048 237.614 40.9048 235.636ZM51.9048 240.205C53.4276 240.205 54.223 239.386 54.4957 238.818H54.5639V240H55.9048V234.25C55.9048 231.477 53.7912 231.159 52.6776 231.159C51.3594 231.159 49.8594 231.614 49.1776 233.205L50.4503 233.659C50.7457 233.023 51.4446 232.341 52.723 232.341C53.956 232.341 54.5639 232.994 54.5639 234.114V234.159C54.5639 234.807 53.9048 234.75 52.3139 234.955C50.6946 235.165 48.9276 235.523 48.9276 237.523C48.9276 239.227 50.2457 240.205 51.9048 240.205ZM52.1094 239C51.0412 239 50.2685 238.523 50.2685 237.591C50.2685 236.568 51.2003 236.25 52.2457 236.114C52.8139 236.045 54.3366 235.886 54.5639 235.614V236.841C54.5639 237.932 53.7003 239 52.1094 239ZM61.8977 242.977H63.2386V240.182C65.6023 240.182 67.1932 238.386 67.1932 235.682C67.1932 232.955 65.6023 231.159 63.2386 231.159V228.364H61.8977V231.159C59.5341 231.159 57.9432 232.955 57.9432 235.682C57.9432 238.386 59.5341 240.182 61.8977 240.182V242.977ZM63.2386 238.977V232.364C65.0341 232.364 65.8523 233.932 65.8523 235.682C65.8523 237.432 65.0341 238.977 63.2386 238.977ZM61.8977 238.977C60.1023 238.977 59.2841 237.432 59.2841 235.682C59.2841 233.932 60.1023 232.364 61.8977 232.364V238.977ZM70.5838 238.023V231.273H69.2429V240H70.8111L74.9929 233.25V240H76.3338V231.273H74.7884L70.5838 238.023ZM78.7898 240H80.1307V236.318H81.3352L84.1989 240H85.9261L82.358 235.477L85.8807 231.273H84.1534L81.017 235.068H80.1307V231.273H78.7898V240Z" fill="#393939"/>
<path d="M29.7727 229.614H33.4318V240H34.8409V229.614H38.5V228.364H29.7727V229.614ZM39.5866 243.273H40.9276V238.659H41.0412C41.3366 239.136 41.9048 240.182 43.5866 240.182C45.7685 240.182 47.2912 238.432 47.2912 235.659C47.2912 232.909 45.7685 231.159 43.5639 231.159C41.8594 231.159 41.3366 232.205 41.0412 232.659H40.8821V231.273H39.5866V243.273ZM40.9048 235.636C40.9048 233.682 41.7685 232.364 43.4048 232.364C45.1094 232.364 45.9503 233.795 45.9503 235.636C45.9503 237.5 45.0866 238.977 43.4048 238.977C41.7912 238.977 40.9048 237.614 40.9048 235.636ZM51.9048 240.205C53.4276 240.205 54.223 239.386 54.4957 238.818H54.5639V240H55.9048V234.25C55.9048 231.477 53.7912 231.159 52.6776 231.159C51.3594 231.159 49.8594 231.614 49.1776 233.205L50.4503 233.659C50.7457 233.023 51.4446 232.341 52.723 232.341C53.956 232.341 54.5639 232.994 54.5639 234.114V234.159C54.5639 234.807 53.9048 234.75 52.3139 234.955C50.6946 235.165 48.9276 235.523 48.9276 237.523C48.9276 239.227 50.2457 240.205 51.9048 240.205ZM52.1094 239C51.0412 239 50.2685 238.523 50.2685 237.591C50.2685 236.568 51.2003 236.25 52.2457 236.114C52.8139 236.045 54.3366 235.886 54.5639 235.614V236.841C54.5639 237.932 53.7003 239 52.1094 239ZM61.8977 242.977H63.2386V240.182C65.6023 240.182 67.1932 238.386 67.1932 235.682C67.1932 232.955 65.6023 231.159 63.2386 231.159V228.364H61.8977V231.159C59.5341 231.159 57.9432 232.955 57.9432 235.682C57.9432 238.386 59.5341 240.182 61.8977 240.182V242.977ZM63.2386 238.977V232.364C65.0341 232.364 65.8523 233.932 65.8523 235.682C65.8523 237.432 65.0341 238.977 63.2386 238.977ZM61.8977 238.977C60.1023 238.977 59.2841 237.432 59.2841 235.682C59.2841 233.932 60.1023 232.364 61.8977 232.364V238.977ZM70.5838 238.023V231.273H69.2429V240H70.8111L74.9929 233.25V240H76.3338V231.273H74.7884L70.5838 238.023ZM78.7898 240H80.1307V236.318H81.3352L84.1989 240H85.9261L82.358 235.477L85.8807 231.273H84.1534L81.017 235.068H80.1307V231.273H78.7898V240Z" fill="url(#paint2_linear)"/>
<rect x="6" y="206" width="104" height="56" rx="11" stroke="url(#paint3_linear)" stroke-width="2"/>
<rect x="1" y="304" width="113" height="56" rx="11" fill="white"/>
<path d="M25.4091 338H29.6136C32.3636 338 33.5 336.659 33.5 334.909C33.5 333.068 32.2273 332.068 31.1591 332V331.886C32.1591 331.614 33.0455 330.955 33.0455 329.455C33.0455 327.75 31.9091 326.364 29.4773 326.364H25.4091V338ZM26.8182 336.75V332.705H29.6818C31.2045 332.705 32.1591 333.727 32.1591 334.909C32.1591 335.932 31.4545 336.75 29.6136 336.75H26.8182ZM26.8182 331.477V327.614H29.4773C31.0227 327.614 31.7045 328.432 31.7045 329.455C31.7045 330.682 30.7045 331.477 29.4318 331.477H26.8182ZM39.179 338.182C41.5426 338.182 43.1335 336.386 43.1335 333.682C43.1335 330.955 41.5426 329.159 39.179 329.159C36.8153 329.159 35.2244 330.955 35.2244 333.682C35.2244 336.386 36.8153 338.182 39.179 338.182ZM39.179 336.977C37.3835 336.977 36.5653 335.432 36.5653 333.682C36.5653 331.932 37.3835 330.364 39.179 330.364C40.9744 330.364 41.7926 331.932 41.7926 333.682C41.7926 335.432 40.9744 336.977 39.179 336.977ZM45.1804 341.273H46.5213V336.659H46.6349C46.9304 337.136 47.4986 338.182 49.1804 338.182C51.3622 338.182 52.8849 336.432 52.8849 333.659C52.8849 330.909 51.3622 329.159 49.1577 329.159C47.4531 329.159 46.9304 330.205 46.6349 330.659H46.4759V329.273H45.1804V341.273ZM46.4986 333.636C46.4986 331.682 47.3622 330.364 48.9986 330.364C50.7031 330.364 51.544 331.795 51.544 333.636C51.544 335.5 50.6804 336.977 48.9986 336.977C47.3849 336.977 46.4986 335.614 46.4986 333.636ZM58.4759 338.182C60.8395 338.182 62.4304 336.386 62.4304 333.682C62.4304 330.955 60.8395 329.159 58.4759 329.159C56.1122 329.159 54.5213 330.955 54.5213 333.682C54.5213 336.386 56.1122 338.182 58.4759 338.182ZM58.4759 336.977C56.6804 336.977 55.8622 335.432 55.8622 333.682C55.8622 331.932 56.6804 330.364 58.4759 330.364C60.2713 330.364 61.0895 331.932 61.0895 333.682C61.0895 335.432 60.2713 336.977 58.4759 336.977ZM65.8182 329.273H64.4773V338H65.8182V334.273H70V338H71.3409V329.273H70V333.023H65.8182V329.273ZM73.7898 338H75.1307V334.318H76.3352L79.1989 338H80.9261L77.358 333.477L80.8807 329.273H79.1534L76.017 333.068H75.1307V329.273H73.7898V338ZM84.9517 338.205C86.4744 338.205 87.2699 337.386 87.5426 336.818H87.6108V338H88.9517V332.25C88.9517 329.477 86.8381 329.159 85.7244 329.159C84.4062 329.159 82.9062 329.614 82.2244 331.205L83.4972 331.659C83.7926 331.023 84.4915 330.341 85.7699 330.341C87.0028 330.341 87.6108 330.994 87.6108 332.114V332.159C87.6108 332.807 86.9517 332.75 85.3608 332.955C83.7415 333.165 81.9744 333.523 81.9744 335.523C81.9744 337.227 83.2926 338.205 84.9517 338.205ZM85.1562 337C84.0881 337 83.3153 336.523 83.3153 335.591C83.3153 334.568 84.2472 334.25 85.2926 334.114C85.8608 334.045 87.3835 333.886 87.6108 333.614V334.841C87.6108 335.932 86.7472 337 85.1562 337Z" fill="#393939"/>
<path d="M25.4091 338H29.6136C32.3636 338 33.5 336.659 33.5 334.909C33.5 333.068 32.2273 332.068 31.1591 332V331.886C32.1591 331.614 33.0455 330.955 33.0455 329.455C33.0455 327.75 31.9091 326.364 29.4773 326.364H25.4091V338ZM26.8182 336.75V332.705H29.6818C31.2045 332.705 32.1591 333.727 32.1591 334.909C32.1591 335.932 31.4545 336.75 29.6136 336.75H26.8182ZM26.8182 331.477V327.614H29.4773C31.0227 327.614 31.7045 328.432 31.7045 329.455C31.7045 330.682 30.7045 331.477 29.4318 331.477H26.8182ZM39.179 338.182C41.5426 338.182 43.1335 336.386 43.1335 333.682C43.1335 330.955 41.5426 329.159 39.179 329.159C36.8153 329.159 35.2244 330.955 35.2244 333.682C35.2244 336.386 36.8153 338.182 39.179 338.182ZM39.179 336.977C37.3835 336.977 36.5653 335.432 36.5653 333.682C36.5653 331.932 37.3835 330.364 39.179 330.364C40.9744 330.364 41.7926 331.932 41.7926 333.682C41.7926 335.432 40.9744 336.977 39.179 336.977ZM45.1804 341.273H46.5213V336.659H46.6349C46.9304 337.136 47.4986 338.182 49.1804 338.182C51.3622 338.182 52.8849 336.432 52.8849 333.659C52.8849 330.909 51.3622 329.159 49.1577 329.159C47.4531 329.159 46.9304 330.205 46.6349 330.659H46.4759V329.273H45.1804V341.273ZM46.4986 333.636C46.4986 331.682 47.3622 330.364 48.9986 330.364C50.7031 330.364 51.544 331.795 51.544 333.636C51.544 335.5 50.6804 336.977 48.9986 336.977C47.3849 336.977 46.4986 335.614 46.4986 333.636ZM58.4759 338.182C60.8395 338.182 62.4304 336.386 62.4304 333.682C62.4304 330.955 60.8395 329.159 58.4759 329.159C56.1122 329.159 54.5213 330.955 54.5213 333.682C54.5213 336.386 56.1122 338.182 58.4759 338.182ZM58.4759 336.977C56.6804 336.977 55.8622 335.432 55.8622 333.682C55.8622 331.932 56.6804 330.364 58.4759 330.364C60.2713 330.364 61.0895 331.932 61.0895 333.682C61.0895 335.432 60.2713 336.977 58.4759 336.977ZM65.8182 329.273H64.4773V338H65.8182V334.273H70V338H71.3409V329.273H70V333.023H65.8182V329.273ZM73.7898 338H75.1307V334.318H76.3352L79.1989 338H80.9261L77.358 333.477L80.8807 329.273H79.1534L76.017 333.068H75.1307V329.273H73.7898V338ZM84.9517 338.205C86.4744 338.205 87.2699 337.386 87.5426 336.818H87.6108V338H88.9517V332.25C88.9517 329.477 86.8381 329.159 85.7244 329.159C84.4062 329.159 82.9062 329.614 82.2244 331.205L83.4972 331.659C83.7926 331.023 84.4915 330.341 85.7699 330.341C87.0028 330.341 87.6108 330.994 87.6108 332.114V332.159C87.6108 332.807 86.9517 332.75 85.3608 332.955C83.7415 333.165 81.9744 333.523 81.9744 335.523C81.9744 337.227 83.2926 338.205 84.9517 338.205ZM85.1562 337C84.0881 337 83.3153 336.523 83.3153 335.591C83.3153 334.568 84.2472 334.25 85.2926 334.114C85.8608 334.045 87.3835 333.886 87.6108 333.614V334.841C87.6108 335.932 86.7472 337 85.1562 337Z" fill="url(#paint4_linear)"/>
<rect x="1" y="304" width="113" height="56" rx="11" stroke="url(#paint5_linear)" stroke-width="2"/>
<rect x="174" y="304" width="111" height="56" rx="11" fill="white"/>
<path d="M205.25 338H206.932L202.068 331.477L206.773 326.364H205.091L200.432 331.409H199.818V326.364H198.409V338H199.818V332.659H201.25L205.25 338ZM208.794 341.273C210.004 341.273 210.857 340.631 211.362 339.273L215.078 329.295L213.612 329.273L211.203 336.227H211.112L208.703 329.273H207.249L210.476 338.045L210.226 338.727C209.737 340.057 209.135 340.182 208.158 339.932L207.817 341.114C207.953 341.182 208.339 341.273 208.794 341.273ZM216.852 341.273H218.193V336.659H218.307C218.602 337.136 219.17 338.182 220.852 338.182C223.034 338.182 224.557 336.432 224.557 333.659C224.557 330.909 223.034 329.159 220.83 329.159C219.125 329.159 218.602 330.205 218.307 330.659H218.148V329.273H216.852V341.273ZM218.17 333.636C218.17 331.682 219.034 330.364 220.67 330.364C222.375 330.364 223.216 331.795 223.216 333.636C223.216 335.5 222.352 336.977 220.67 336.977C219.057 336.977 218.17 335.614 218.17 333.636ZM229.17 338.205C230.693 338.205 231.489 337.386 231.761 336.818H231.83V338H233.17V332.25C233.17 329.477 231.057 329.159 229.943 329.159C228.625 329.159 227.125 329.614 226.443 331.205L227.716 331.659C228.011 331.023 228.71 330.341 229.989 330.341C231.222 330.341 231.83 330.994 231.83 332.114V332.159C231.83 332.807 231.17 332.75 229.58 332.955C227.96 333.165 226.193 333.523 226.193 335.523C226.193 337.227 227.511 338.205 229.17 338.205ZM229.375 337C228.307 337 227.534 336.523 227.534 335.591C227.534 334.568 228.466 334.25 229.511 334.114C230.08 334.045 231.602 333.886 231.83 333.614V334.841C231.83 335.932 230.966 337 229.375 337ZM234.43 330.523H237.317V338H238.658V330.523H241.521V329.273H234.43V330.523ZM246.57 338.182C248.933 338.182 250.524 336.386 250.524 333.682C250.524 330.955 248.933 329.159 246.57 329.159C244.206 329.159 242.615 330.955 242.615 333.682C242.615 336.386 244.206 338.182 246.57 338.182ZM246.57 336.977C244.774 336.977 243.956 335.432 243.956 333.682C243.956 331.932 244.774 330.364 246.57 330.364C248.365 330.364 249.183 331.932 249.183 333.682C249.183 335.432 248.365 336.977 246.57 336.977ZM252.571 341.273H253.912V336.659H254.026C254.321 337.136 254.889 338.182 256.571 338.182C258.753 338.182 260.276 336.432 260.276 333.659C260.276 330.909 258.753 329.159 256.548 329.159C254.844 329.159 254.321 330.205 254.026 330.659H253.866V329.273H252.571V341.273ZM253.889 333.636C253.889 331.682 254.753 330.364 256.389 330.364C258.094 330.364 258.935 331.795 258.935 333.636C258.935 335.5 258.071 336.977 256.389 336.977C254.776 336.977 253.889 335.614 253.889 333.636Z" fill="#393939"/>
<path d="M205.25 338H206.932L202.068 331.477L206.773 326.364H205.091L200.432 331.409H199.818V326.364H198.409V338H199.818V332.659H201.25L205.25 338ZM208.794 341.273C210.004 341.273 210.857 340.631 211.362 339.273L215.078 329.295L213.612 329.273L211.203 336.227H211.112L208.703 329.273H207.249L210.476 338.045L210.226 338.727C209.737 340.057 209.135 340.182 208.158 339.932L207.817 341.114C207.953 341.182 208.339 341.273 208.794 341.273ZM216.852 341.273H218.193V336.659H218.307C218.602 337.136 219.17 338.182 220.852 338.182C223.034 338.182 224.557 336.432 224.557 333.659C224.557 330.909 223.034 329.159 220.83 329.159C219.125 329.159 218.602 330.205 218.307 330.659H218.148V329.273H216.852V341.273ZM218.17 333.636C218.17 331.682 219.034 330.364 220.67 330.364C222.375 330.364 223.216 331.795 223.216 333.636C223.216 335.5 222.352 336.977 220.67 336.977C219.057 336.977 218.17 335.614 218.17 333.636ZM229.17 338.205C230.693 338.205 231.489 337.386 231.761 336.818H231.83V338H233.17V332.25C233.17 329.477 231.057 329.159 229.943 329.159C228.625 329.159 227.125 329.614 226.443 331.205L227.716 331.659C228.011 331.023 228.71 330.341 229.989 330.341C231.222 330.341 231.83 330.994 231.83 332.114V332.159C231.83 332.807 231.17 332.75 229.58 332.955C227.96 333.165 226.193 333.523 226.193 335.523C226.193 337.227 227.511 338.205 229.17 338.205ZM229.375 337C228.307 337 227.534 336.523 227.534 335.591C227.534 334.568 228.466 334.25 229.511 334.114C230.08 334.045 231.602 333.886 231.83 333.614V334.841C231.83 335.932 230.966 337 229.375 337ZM234.43 330.523H237.317V338H238.658V330.523H241.521V329.273H234.43V330.523ZM246.57 338.182C248.933 338.182 250.524 336.386 250.524 333.682C250.524 330.955 248.933 329.159 246.57 329.159C244.206 329.159 242.615 330.955 242.615 333.682C242.615 336.386 244.206 338.182 246.57 338.182ZM246.57 336.977C244.774 336.977 243.956 335.432 243.956 333.682C243.956 331.932 244.774 330.364 246.57 330.364C248.365 330.364 249.183 331.932 249.183 333.682C249.183 335.432 248.365 336.977 246.57 336.977ZM252.571 341.273H253.912V336.659H254.026C254.321 337.136 254.889 338.182 256.571 338.182C258.753 338.182 260.276 336.432 260.276 333.659C260.276 330.909 258.753 329.159 256.548 329.159C254.844 329.159 254.321 330.205 254.026 330.659H253.866V329.273H252.571V341.273ZM253.889 333.636C253.889 331.682 254.753 330.364 256.389 330.364C258.094 330.364 258.935 331.795 258.935 333.636C258.935 335.5 258.071 336.977 256.389 336.977C254.776 336.977 253.889 335.614 253.889 333.636Z" fill="url(#paint6_linear)"/>
<rect x="174" y="304" width="111" height="56" rx="11" stroke="url(#paint7_linear)" stroke-width="2"/>
<rect x="350" y="304" width="100" height="56" rx="11" fill="white"/>
<path d="M384.227 332.182C384.227 328.5 382.068 326.205 379.091 326.205C376.114 326.205 373.955 328.5 373.955 332.182C373.955 335.864 376.114 338.159 379.091 338.159C382.068 338.159 384.227 335.864 384.227 332.182ZM382.864 332.182C382.864 335.205 381.205 336.841 379.091 336.841C376.977 336.841 375.318 335.205 375.318 332.182C375.318 329.159 376.977 327.523 379.091 327.523C381.205 327.523 382.864 329.159 382.864 332.182ZM389.96 340.977H391.301V338.182C393.665 338.182 395.256 336.386 395.256 333.682C395.256 330.955 393.665 329.159 391.301 329.159V326.364H389.96V329.159C387.597 329.159 386.006 330.955 386.006 333.682C386.006 336.386 387.597 338.182 389.96 338.182V340.977ZM391.301 336.977V330.364C393.097 330.364 393.915 331.932 393.915 333.682C393.915 335.432 393.097 336.977 391.301 336.977ZM389.96 336.977C388.165 336.977 387.347 335.432 387.347 333.682C387.347 331.932 388.165 330.364 389.96 330.364V336.977ZM400.851 340.977H402.192V338.182C404.555 338.182 406.146 336.386 406.146 333.682C406.146 330.955 404.555 329.159 402.192 329.159V326.364H400.851V329.159C398.487 329.159 396.896 330.955 396.896 333.682C396.896 336.386 398.487 338.182 400.851 338.182V340.977ZM402.192 336.977V330.364C403.987 330.364 404.805 331.932 404.805 333.682C404.805 335.432 403.987 336.977 402.192 336.977ZM400.851 336.977C399.055 336.977 398.237 335.432 398.237 333.682C398.237 331.932 399.055 330.364 400.851 330.364V336.977ZM411.855 338.182C413.628 338.182 414.923 337.295 415.332 335.977L414.037 335.614C413.696 336.523 412.906 336.977 411.855 336.977C410.281 336.977 409.196 335.96 409.134 334.091H415.469V333.523C415.469 330.273 413.537 329.159 411.719 329.159C409.355 329.159 407.787 331.023 407.787 333.705C407.787 336.386 409.332 338.182 411.855 338.182ZM409.134 332.932C409.224 331.574 410.185 330.364 411.719 330.364C413.173 330.364 414.105 331.455 414.105 332.932H409.134ZM417.509 341.273H418.849V336.659H418.963C419.259 337.136 419.827 338.182 421.509 338.182C423.69 338.182 425.213 336.432 425.213 333.659C425.213 330.909 423.69 329.159 421.486 329.159C419.781 329.159 419.259 330.205 418.963 330.659H418.804V329.273H417.509V341.273ZM418.827 333.636C418.827 331.682 419.69 330.364 421.327 330.364C423.031 330.364 423.872 331.795 423.872 333.636C423.872 335.5 423.009 336.977 421.327 336.977C419.713 336.977 418.827 335.614 418.827 333.636Z" fill="#393939"/>
<path d="M384.227 332.182C384.227 328.5 382.068 326.205 379.091 326.205C376.114 326.205 373.955 328.5 373.955 332.182C373.955 335.864 376.114 338.159 379.091 338.159C382.068 338.159 384.227 335.864 384.227 332.182ZM382.864 332.182C382.864 335.205 381.205 336.841 379.091 336.841C376.977 336.841 375.318 335.205 375.318 332.182C375.318 329.159 376.977 327.523 379.091 327.523C381.205 327.523 382.864 329.159 382.864 332.182ZM389.96 340.977H391.301V338.182C393.665 338.182 395.256 336.386 395.256 333.682C395.256 330.955 393.665 329.159 391.301 329.159V326.364H389.96V329.159C387.597 329.159 386.006 330.955 386.006 333.682C386.006 336.386 387.597 338.182 389.96 338.182V340.977ZM391.301 336.977V330.364C393.097 330.364 393.915 331.932 393.915 333.682C393.915 335.432 393.097 336.977 391.301 336.977ZM389.96 336.977C388.165 336.977 387.347 335.432 387.347 333.682C387.347 331.932 388.165 330.364 389.96 330.364V336.977ZM400.851 340.977H402.192V338.182C404.555 338.182 406.146 336.386 406.146 333.682C406.146 330.955 404.555 329.159 402.192 329.159V326.364H400.851V329.159C398.487 329.159 396.896 330.955 396.896 333.682C396.896 336.386 398.487 338.182 400.851 338.182V340.977ZM402.192 336.977V330.364C403.987 330.364 404.805 331.932 404.805 333.682C404.805 335.432 403.987 336.977 402.192 336.977ZM400.851 336.977C399.055 336.977 398.237 335.432 398.237 333.682C398.237 331.932 399.055 330.364 400.851 330.364V336.977ZM411.855 338.182C413.628 338.182 414.923 337.295 415.332 335.977L414.037 335.614C413.696 336.523 412.906 336.977 411.855 336.977C410.281 336.977 409.196 335.96 409.134 334.091H415.469V333.523C415.469 330.273 413.537 329.159 411.719 329.159C409.355 329.159 407.787 331.023 407.787 333.705C407.787 336.386 409.332 338.182 411.855 338.182ZM409.134 332.932C409.224 331.574 410.185 330.364 411.719 330.364C413.173 330.364 414.105 331.455 414.105 332.932H409.134ZM417.509 341.273H418.849V336.659H418.963C419.259 337.136 419.827 338.182 421.509 338.182C423.69 338.182 425.213 336.432 425.213 333.659C425.213 330.909 423.69 329.159 421.486 329.159C419.781 329.159 419.259 330.205 418.963 330.659H418.804V329.273H417.509V341.273ZM418.827 333.636C418.827 331.682 419.69 330.364 421.327 330.364C423.031 330.364 423.872 331.795 423.872 333.636C423.872 335.5 423.009 336.977 421.327 336.977C419.713 336.977 418.827 335.614 418.827 333.636Z" fill="url(#paint8_linear)"/>
<rect x="350" y="304" width="100" height="56" rx="11" stroke="url(#paint9_linear)" stroke-width="2"/>
<rect x="156" y="396" width="147" height="66" rx="12" fill="url(#paint10_linear)"/>
<path d="M206.114 423.364H197.432V435H198.841V424.614H204.705V435H206.114V423.364ZM211.342 435.205C212.865 435.205 213.661 434.386 213.933 433.818H214.001V435H215.342V429.25C215.342 426.477 213.229 426.159 212.115 426.159C210.797 426.159 209.297 426.614 208.615 428.205L209.888 428.659C210.183 428.023 210.882 427.341 212.161 427.341C213.393 427.341 214.001 427.994 214.001 429.114V429.159C214.001 429.807 213.342 429.75 211.751 429.955C210.132 430.165 208.365 430.523 208.365 432.523C208.365 434.227 209.683 435.205 211.342 435.205ZM211.547 434C210.479 434 209.706 433.523 209.706 432.591C209.706 431.568 210.638 431.25 211.683 431.114C212.251 431.045 213.774 430.886 214.001 430.614V431.841C214.001 432.932 213.138 434 211.547 434ZM217.79 438.273H219.131V433.659H219.244C219.54 434.136 220.108 435.182 221.79 435.182C223.972 435.182 225.494 433.432 225.494 430.659C225.494 427.909 223.972 426.159 221.767 426.159C220.062 426.159 219.54 427.205 219.244 427.659H219.085V426.273H217.79V438.273ZM219.108 430.636C219.108 428.682 219.972 427.364 221.608 427.364C223.312 427.364 224.153 428.795 224.153 430.636C224.153 432.5 223.29 433.977 221.608 433.977C219.994 433.977 219.108 432.614 219.108 430.636ZM226.399 427.523H229.286V435H230.626V427.523H233.49V426.273H226.399V427.523ZM236.787 426.273H235.446V435H236.787V431.273H240.969V435H242.31V426.273H240.969V430.023H236.787V426.273ZM248.418 435.182C250.19 435.182 251.486 434.295 251.895 432.977L250.599 432.614C250.259 433.523 249.469 433.977 248.418 433.977C246.844 433.977 245.759 432.96 245.696 431.091H252.031V430.523C252.031 427.273 250.099 426.159 248.281 426.159C245.918 426.159 244.349 428.023 244.349 430.705C244.349 433.386 245.895 435.182 248.418 435.182ZM245.696 429.932C245.787 428.574 246.747 427.364 248.281 427.364C249.736 427.364 250.668 428.455 250.668 429.932H245.696ZM254.071 438.273H255.412V433.659H255.526C255.821 434.136 256.389 435.182 258.071 435.182C260.253 435.182 261.776 433.432 261.776 430.659C261.776 427.909 260.253 426.159 258.048 426.159C256.344 426.159 255.821 427.205 255.526 427.659H255.366V426.273H254.071V438.273ZM255.389 430.636C255.389 428.682 256.253 427.364 257.889 427.364C259.594 427.364 260.435 428.795 260.435 430.636C260.435 432.5 259.571 433.977 257.889 433.977C256.276 433.977 255.389 432.614 255.389 430.636Z" fill="white"/>
<rect x="174" y="206" width="111" height="56" rx="11" fill="white"/>
<path d="M205.25 240H206.932L202.068 233.477L206.773 228.364H205.091L200.432 233.409H199.818V228.364H198.409V240H199.818V234.659H201.25L205.25 240ZM208.571 243.273H209.912V238.659H210.026C210.321 239.136 210.889 240.182 212.571 240.182C214.753 240.182 216.276 238.432 216.276 235.659C216.276 232.909 214.753 231.159 212.548 231.159C210.844 231.159 210.321 232.205 210.026 232.659H209.866V231.273H208.571V243.273ZM209.889 235.636C209.889 233.682 210.753 232.364 212.389 232.364C214.094 232.364 214.935 233.795 214.935 235.636C214.935 237.5 214.071 238.977 212.389 238.977C210.776 238.977 209.889 237.614 209.889 235.636ZM221.98 240.182C223.753 240.182 225.048 239.295 225.457 237.977L224.162 237.614C223.821 238.523 223.031 238.977 221.98 238.977C220.406 238.977 219.321 237.96 219.259 236.091H225.594V235.523C225.594 232.273 223.662 231.159 221.844 231.159C219.48 231.159 217.912 233.023 217.912 235.705C217.912 238.386 219.457 240.182 221.98 240.182ZM219.259 234.932C219.349 233.574 220.31 232.364 221.844 232.364C223.298 232.364 224.23 233.455 224.23 234.932H219.259ZM230.202 240.205C231.724 240.205 232.52 239.386 232.793 238.818H232.861V240H234.202V234.25C234.202 231.477 232.088 231.159 230.974 231.159C229.656 231.159 228.156 231.614 227.474 233.205L228.747 233.659C229.043 233.023 229.741 232.341 231.02 232.341C232.253 232.341 232.861 232.994 232.861 234.114V234.159C232.861 234.807 232.202 234.75 230.611 234.955C228.991 235.165 227.224 235.523 227.224 237.523C227.224 239.227 228.543 240.205 230.202 240.205ZM230.406 239C229.338 239 228.565 238.523 228.565 237.591C228.565 236.568 229.497 236.25 230.543 236.114C231.111 236.045 232.634 235.886 232.861 235.614V236.841C232.861 237.932 231.997 239 230.406 239ZM235.462 232.523H238.348V240H239.689V232.523H242.553V231.273H235.462V232.523ZM245.849 238.023V231.273H244.509V240H246.077L250.259 233.25V240H251.599V231.273H250.054L245.849 238.023ZM254.055 240H258.169C259.942 240 261.01 239 261.01 237.659C261.01 236.29 259.97 235.551 259.01 235.409C259.993 235.205 260.692 234.653 260.692 233.591C260.692 232.199 259.499 231.273 257.624 231.273H254.055V240ZM255.328 238.773V236.091H258.169C259.089 236.091 259.646 236.642 259.646 237.545C259.646 238.307 259.089 238.773 258.169 238.773H255.328ZM255.328 234.932V232.5H257.624C258.697 232.5 259.351 232.949 259.351 233.682C259.351 234.46 258.697 234.932 257.624 234.932H255.328Z" fill="#393939"/>
<path d="M205.25 240H206.932L202.068 233.477L206.773 228.364H205.091L200.432 233.409H199.818V228.364H198.409V240H199.818V234.659H201.25L205.25 240ZM208.571 243.273H209.912V238.659H210.026C210.321 239.136 210.889 240.182 212.571 240.182C214.753 240.182 216.276 238.432 216.276 235.659C216.276 232.909 214.753 231.159 212.548 231.159C210.844 231.159 210.321 232.205 210.026 232.659H209.866V231.273H208.571V243.273ZM209.889 235.636C209.889 233.682 210.753 232.364 212.389 232.364C214.094 232.364 214.935 233.795 214.935 235.636C214.935 237.5 214.071 238.977 212.389 238.977C210.776 238.977 209.889 237.614 209.889 235.636ZM221.98 240.182C223.753 240.182 225.048 239.295 225.457 237.977L224.162 237.614C223.821 238.523 223.031 238.977 221.98 238.977C220.406 238.977 219.321 237.96 219.259 236.091H225.594V235.523C225.594 232.273 223.662 231.159 221.844 231.159C219.48 231.159 217.912 233.023 217.912 235.705C217.912 238.386 219.457 240.182 221.98 240.182ZM219.259 234.932C219.349 233.574 220.31 232.364 221.844 232.364C223.298 232.364 224.23 233.455 224.23 234.932H219.259ZM230.202 240.205C231.724 240.205 232.52 239.386 232.793 238.818H232.861V240H234.202V234.25C234.202 231.477 232.088 231.159 230.974 231.159C229.656 231.159 228.156 231.614 227.474 233.205L228.747 233.659C229.043 233.023 229.741 232.341 231.02 232.341C232.253 232.341 232.861 232.994 232.861 234.114V234.159C232.861 234.807 232.202 234.75 230.611 234.955C228.991 235.165 227.224 235.523 227.224 237.523C227.224 239.227 228.543 240.205 230.202 240.205ZM230.406 239C229.338 239 228.565 238.523 228.565 237.591C228.565 236.568 229.497 236.25 230.543 236.114C231.111 236.045 232.634 235.886 232.861 235.614V236.841C232.861 237.932 231.997 239 230.406 239ZM235.462 232.523H238.348V240H239.689V232.523H242.553V231.273H235.462V232.523ZM245.849 238.023V231.273H244.509V240H246.077L250.259 233.25V240H251.599V231.273H250.054L245.849 238.023ZM254.055 240H258.169C259.942 240 261.01 239 261.01 237.659C261.01 236.29 259.97 235.551 259.01 235.409C259.993 235.205 260.692 234.653 260.692 233.591C260.692 232.199 259.499 231.273 257.624 231.273H254.055V240ZM255.328 238.773V236.091H258.169C259.089 236.091 259.646 236.642 259.646 237.545C259.646 238.307 259.089 238.773 258.169 238.773H255.328ZM255.328 234.932V232.5H257.624C258.697 232.5 259.351 232.949 259.351 233.682C259.351 234.46 258.697 234.932 257.624 234.932H255.328Z" fill="url(#paint11_linear)"/>
<rect x="174" y="206" width="111" height="56" rx="11" stroke="url(#paint12_linear)" stroke-width="2"/>
<rect x="343" y="206" width="113" height="56" rx="11" fill="white"/>
<path d="M366.409 240H366.841C369.409 240 369.926 237.909 370.068 234.25L370.25 229.614H374.591V240H376V228.364H368.909L368.705 233.977C368.58 237.409 368.205 238.705 366.75 238.705H366.409V240ZM382.293 240.182C384.065 240.182 385.361 239.295 385.77 237.977L384.474 237.614C384.134 238.523 383.344 238.977 382.293 238.977C380.719 238.977 379.634 237.96 379.571 236.091H385.906V235.523C385.906 232.273 383.974 231.159 382.156 231.159C379.793 231.159 378.224 233.023 378.224 235.705C378.224 238.386 379.77 240.182 382.293 240.182ZM379.571 234.932C379.662 233.574 380.622 232.364 382.156 232.364C383.611 232.364 384.543 233.455 384.543 234.932H379.571ZM389.287 231.273H387.946V240H389.287V236.273H393.469V240H394.81V231.273H393.469V235.023H389.287V231.273ZM396.327 242.5H397.668V240H404.122V242.5H405.463V238.75H404.122V231.273H398.577L398.281 234.727C398.071 237.17 397.759 238.011 397.054 238.75H396.327V242.5ZM398.577 238.75C399.19 237.943 399.412 236.551 399.599 234.727L399.827 232.523H402.781V238.75H398.577ZM408.584 238.023V231.273H407.243V240H408.811L412.993 233.25V240H414.334V231.273H412.788L408.584 238.023ZM418.131 231.273H416.79V240H418.131V236.273H422.312V240H423.653V231.273H422.312V235.023H418.131V231.273ZM431.489 231.273H426.102V240H427.443V232.523H431.489V231.273Z" fill="#393939"/>
<path d="M366.409 240H366.841C369.409 240 369.926 237.909 370.068 234.25L370.25 229.614H374.591V240H376V228.364H368.909L368.705 233.977C368.58 237.409 368.205 238.705 366.75 238.705H366.409V240ZM382.293 240.182C384.065 240.182 385.361 239.295 385.77 237.977L384.474 237.614C384.134 238.523 383.344 238.977 382.293 238.977C380.719 238.977 379.634 237.96 379.571 236.091H385.906V235.523C385.906 232.273 383.974 231.159 382.156 231.159C379.793 231.159 378.224 233.023 378.224 235.705C378.224 238.386 379.77 240.182 382.293 240.182ZM379.571 234.932C379.662 233.574 380.622 232.364 382.156 232.364C383.611 232.364 384.543 233.455 384.543 234.932H379.571ZM389.287 231.273H387.946V240H389.287V236.273H393.469V240H394.81V231.273H393.469V235.023H389.287V231.273ZM396.327 242.5H397.668V240H404.122V242.5H405.463V238.75H404.122V231.273H398.577L398.281 234.727C398.071 237.17 397.759 238.011 397.054 238.75H396.327V242.5ZM398.577 238.75C399.19 237.943 399.412 236.551 399.599 234.727L399.827 232.523H402.781V238.75H398.577ZM408.584 238.023V231.273H407.243V240H408.811L412.993 233.25V240H414.334V231.273H412.788L408.584 238.023ZM418.131 231.273H416.79V240H418.131V236.273H422.312V240H423.653V231.273H422.312V235.023H418.131V231.273ZM431.489 231.273H426.102V240H427.443V232.523H431.489V231.273Z" fill="url(#paint13_linear)"/>
<rect x="343" y="206" width="113" height="56" rx="11" stroke="url(#paint14_linear)" stroke-width="2"/>
<rect x="136" y="102" width="186" height="62" rx="11" fill="white" stroke="url(#paint15_linear)" stroke-width="2"/>
<circle cx="229" cy="133" r="20" fill="url(#paint16_linear)"/>
<path d="M235.581 125H223.419C222.046 125 221 126.046 221 127.419V139.581C221 140.954 222.046 142 223.419 142H235.581C236.954 142 238 140.954 238 139.581V127.419C238 126.046 236.954 125 235.581 125ZM229.5 138.6C232.312 138.6 234.6 136.377 234.6 133.696C234.6 133.238 234.535 132.715 234.404 132.323H235.842V139.254C235.842 139.581 235.581 139.908 235.188 139.908H223.812C223.485 139.908 223.158 139.646 223.158 139.254V132.258H224.662C224.531 132.715 224.465 133.173 224.465 133.631C224.4 136.377 226.688 138.6 229.5 138.6ZM229.5 136.638C227.669 136.638 226.231 135.2 226.231 133.435C226.231 131.669 227.669 130.231 229.5 130.231C231.331 130.231 232.769 131.669 232.769 133.435C232.769 135.265 231.331 136.638 229.5 136.638ZM235.777 129.642C235.777 130.035 235.45 130.362 235.058 130.362H233.227C232.835 130.362 232.508 130.035 232.508 129.642V127.877C232.508 127.485 232.835 127.158 233.227 127.158H235.058C235.45 127.158 235.777 127.485 235.777 127.877V129.642Z" fill="white"/>
<circle cx="279" cy="133" r="20" fill="#7294C7"/>
<path d="M288.807 138.115C288.807 138.032 288.723 138.032 288.723 137.949C288.391 137.285 287.644 136.455 286.648 135.542C286.15 135.126 285.901 134.794 285.735 134.628C285.486 134.296 285.486 134.047 285.569 133.715C285.652 133.466 285.984 133.051 286.565 132.304C286.897 131.889 287.063 131.639 287.312 131.39C288.557 129.73 289.139 128.651 288.973 128.153L288.89 128.069C288.807 127.986 288.723 127.903 288.557 127.903C288.391 127.82 288.142 127.82 287.893 127.903H284.738C284.655 127.903 284.655 127.903 284.489 127.903C284.406 127.903 284.323 127.903 284.323 127.903H284.24H284.157L284.074 127.986C283.991 128.069 283.991 128.069 283.991 128.153C283.659 129.066 283.244 129.813 282.829 130.643C282.58 131.058 282.331 131.473 282.082 131.806C281.833 132.138 281.667 132.387 281.5 132.553C281.334 132.719 281.168 132.802 281.085 132.968C281.002 133.051 280.836 133.134 280.836 133.051C280.753 133.051 280.67 133.051 280.67 132.968C280.587 132.885 280.504 132.802 280.421 132.719C280.338 132.636 280.338 132.47 280.255 132.304C280.255 132.138 280.255 131.972 280.255 131.889C280.255 131.806 280.255 131.556 280.255 131.39C280.255 131.141 280.255 130.975 280.255 130.892C280.255 130.643 280.255 130.311 280.255 129.979C280.255 129.647 280.255 129.398 280.255 129.232C280.255 129.066 280.255 128.817 280.255 128.651C280.255 128.402 280.255 128.236 280.255 128.153C280.255 128.069 280.172 127.903 280.172 127.82C280.089 127.737 280.006 127.654 279.923 127.571C279.84 127.488 279.674 127.488 279.591 127.405C279.176 127.322 278.678 127.239 278.097 127.239C276.768 127.239 275.855 127.322 275.523 127.488C275.357 127.571 275.191 127.654 275.108 127.82C274.942 127.986 274.942 128.069 275.025 128.069C275.44 128.153 275.772 128.319 275.938 128.568L276.021 128.734C276.104 128.817 276.104 128.983 276.187 129.232C276.27 129.481 276.27 129.73 276.27 130.062C276.27 130.56 276.27 131.058 276.27 131.39C276.27 131.806 276.187 132.055 276.187 132.304C276.187 132.553 276.104 132.719 276.021 132.802C275.938 132.968 275.938 133.051 275.855 133.051C275.855 133.051 275.855 133.134 275.772 133.134C275.689 133.134 275.606 133.217 275.44 133.217C275.357 133.217 275.191 133.134 275.108 133.051C274.942 132.968 274.776 132.802 274.693 132.636C274.527 132.47 274.361 132.221 274.194 131.889C274.028 131.556 273.779 131.224 273.613 130.726L273.447 130.394C273.364 130.228 273.198 129.896 273.032 129.481C272.866 129.066 272.7 128.734 272.534 128.319C272.451 128.153 272.368 128.069 272.285 127.986H272.202C272.202 127.986 272.119 127.903 272.036 127.903C271.953 127.903 271.87 127.82 271.787 127.82H268.798C268.466 127.82 268.3 127.903 268.217 127.986L268.134 128.069C268.134 128.069 268.134 128.153 268.134 128.236C268.134 128.319 268.134 128.402 268.217 128.568C268.632 129.564 269.13 130.56 269.628 131.556C270.126 132.47 270.624 133.3 270.957 133.881C271.372 134.462 271.704 135.043 272.119 135.542C272.534 136.04 272.783 136.372 272.866 136.538C273.032 136.704 273.115 136.787 273.198 136.87L273.447 137.119C273.613 137.285 273.862 137.534 274.194 137.783C274.527 138.032 274.942 138.281 275.357 138.53C275.772 138.779 276.27 138.945 276.768 139.112C277.349 139.278 277.847 139.361 278.346 139.278H279.591C279.84 139.278 280.006 139.195 280.172 139.029L280.255 138.945C280.255 138.862 280.338 138.862 280.338 138.779C280.338 138.696 280.338 138.613 280.338 138.447C280.338 138.115 280.338 137.866 280.421 137.617C280.504 137.368 280.504 137.202 280.587 137.036C280.67 136.87 280.753 136.787 280.836 136.704C280.919 136.621 281.002 136.538 281.002 136.538H281.085C281.251 136.455 281.5 136.538 281.667 136.704C281.916 136.87 282.165 137.119 282.331 137.368C282.497 137.617 282.746 137.866 283.078 138.198C283.41 138.53 283.659 138.779 283.825 138.862L284.074 139.029C284.24 139.112 284.406 139.195 284.655 139.278C284.904 139.361 285.07 139.361 285.237 139.361L288.059 139.278C288.308 139.278 288.557 139.195 288.723 139.112C288.89 139.029 288.973 138.945 288.973 138.779C288.973 138.696 288.973 138.53 288.973 138.447C288.806 138.281 288.807 138.198 288.807 138.115Z" fill="white"/>
<circle cx="179" cy="133" r="20" fill="#4E6297"/>
<path d="M188 126.819C188 125.321 186.679 124 185.181 124H173.819C172.321 124 171 125.321 171 126.819V138.181C171 139.679 172.321 141 173.819 141H179.544V134.57H177.43V131.751H179.544V130.606C179.544 128.668 180.953 126.995 182.715 126.995H185.005V129.813H182.715C182.451 129.813 182.187 130.078 182.187 130.606V131.751H185.005V134.57H182.187V141H185.181C186.679 141 188 139.679 188 138.181V126.819Z" fill="white"/>
<defs>
<linearGradient id="paint0_linear" x1="229" y1="20" x2="229" y2="46" gradientUnits="userSpaceOnUse">
<stop stop-color="#F82C34"/>
<stop offset="1" stop-color="#CA181D"/>
</linearGradient>
<linearGradient id="paint1_linear" x1="229" y1="0" x2="229" y2="66" gradientUnits="userSpaceOnUse">
<stop stop-color="#F82C34"/>
<stop offset="1" stop-color="#CA181D"/>
</linearGradient>
<linearGradient id="paint2_linear" x1="58" y1="221" x2="58" y2="247" gradientUnits="userSpaceOnUse">
<stop stop-color="#F82C34"/>
<stop offset="1" stop-color="#CA181D"/>
</linearGradient>
<linearGradient id="paint3_linear" x1="58" y1="205" x2="58" y2="263" gradientUnits="userSpaceOnUse">
<stop stop-color="#F82C34"/>
<stop offset="1" stop-color="#CA181D"/>
</linearGradient>
<linearGradient id="paint4_linear" x1="57.5" y1="319" x2="57.5" y2="345" gradientUnits="userSpaceOnUse">
<stop stop-color="#F82C34"/>
<stop offset="1" stop-color="#CA181D"/>
</linearGradient>
<linearGradient id="paint5_linear" x1="57.5" y1="303" x2="57.5" y2="361" gradientUnits="userSpaceOnUse">
<stop stop-color="#F82C34"/>
<stop offset="1" stop-color="#CA181D"/>
</linearGradient>
<linearGradient id="paint6_linear" x1="229.5" y1="319" x2="229.5" y2="345" gradientUnits="userSpaceOnUse">
<stop stop-color="#F82C34"/>
<stop offset="1" stop-color="#CA181D"/>
</linearGradient>
<linearGradient id="paint7_linear" x1="229.5" y1="303" x2="229.5" y2="361" gradientUnits="userSpaceOnUse">
<stop stop-color="#F82C34"/>
<stop offset="1" stop-color="#CA181D"/>
</linearGradient>
<linearGradient id="paint8_linear" x1="400" y1="319" x2="400" y2="345" gradientUnits="userSpaceOnUse">
<stop stop-color="#F82C34"/>
<stop offset="1" stop-color="#CA181D"/>
</linearGradient>
<linearGradient id="paint9_linear" x1="400" y1="303" x2="400" y2="361" gradientUnits="userSpaceOnUse">
<stop stop-color="#F82C34"/>
<stop offset="1" stop-color="#CA181D"/>
</linearGradient>
<linearGradient id="paint10_linear" x1="229.5" y1="396" x2="229.5" y2="462" gradientUnits="userSpaceOnUse">
<stop stop-color="#F82C34"/>
<stop offset="1" stop-color="#CA181D"/>
</linearGradient>
<linearGradient id="paint11_linear" x1="229.5" y1="221" x2="229.5" y2="247" gradientUnits="userSpaceOnUse">
<stop stop-color="#F82C34"/>
<stop offset="1" stop-color="#CA181D"/>
</linearGradient>
<linearGradient id="paint12_linear" x1="229.5" y1="205" x2="229.5" y2="263" gradientUnits="userSpaceOnUse">
<stop stop-color="#F82C34"/>
<stop offset="1" stop-color="#CA181D"/>
</linearGradient>
<linearGradient id="paint13_linear" x1="399.5" y1="221" x2="399.5" y2="247" gradientUnits="userSpaceOnUse">
<stop stop-color="#F82C34"/>
<stop offset="1" stop-color="#CA181D"/>
</linearGradient>
<linearGradient id="paint14_linear" x1="399.5" y1="205" x2="399.5" y2="263" gradientUnits="userSpaceOnUse">
<stop stop-color="#F82C34"/>
<stop offset="1" stop-color="#CA181D"/>
</linearGradient>
<linearGradient id="paint15_linear" x1="229" y1="101" x2="229" y2="165" gradientUnits="userSpaceOnUse">
<stop stop-color="#F82C34"/>
<stop offset="1" stop-color="#CA181D"/>
</linearGradient>
<linearGradient id="paint16_linear" x1="217.5" y1="148.5" x2="244" y2="121" gradientUnits="userSpaceOnUse">
<stop stop-color="#EEA054"/>
<stop offset="0.502762" stop-color="#D64763"/>
<stop offset="1" stop-color="#B62A99"/>
</linearGradient>
</defs>
</svg>
